<?xml version="1.0" encoding="utf-8"?>
<!-- Generator: Adobe Illustrator 24.3.0, SVG Export Plug-In . SVG Version: 6.00 Build 0)  -->
<svg version="1.1" id="Calque_1" xmlns="http://www.w3.org/2000/svg" xmlns:xlink="http://www.w3.org/1999/xlink" x="0px" y="0px"
	 viewBox="0 0 272.2 272.2" style="enable-background:new 0 0 272.2 272.2;" xml:space="preserve">
<style type="text/css">
	.st0{fill:#E20613;}
</style>
<path class="st0" d="M112.7,178.6c-0.9-0.9-2.5-0.9-3.4,0c-0.7,0.7-1.1,1.6-1.1,2.6c-0.1,1.4,0.8,2.7,2.1,3.2
	c1.1,0.3,2.3-0.1,2.9-1.1c0.8-1.4,0.7-3.1-0.3-4.4C112.8,178.7,112.7,178.6,112.7,178.6z"/>
<path class="st0" d="M191.6,180.7c0.1,1.5-0.9,2.8-2.4,2.9c-0.1,0-0.1,0-0.2,0c-1.5-0.1-2.6-1.4-2.5-2.9c-0.2-1.4,0.7-2.8,2.1-3
	s2.8,0.7,3,2.1C191.6,180.2,191.6,180.5,191.6,180.7z"/>
<path class="st0" d="M267.9,133.1c-1.7-0.6-3.6-0.6-5.3-0.2c-0.8,0.2-1.3,0.8-1.5,1.6c-0.2,0.8,0.2,1.6,0.9,2
	c0.3,0.3,0.7,0.5,1.1,0.6c3,1,6,2,9,3l0-5.5C270.8,134,269.4,133.5,267.9,133.1z"/>
<path class="st0" d="M137.8,184.4C137.8,184.4,137.7,184.4,137.8,184.4c-1.6,0-2.8-1.3-2.8-3.2c0-1.9,1.2-3.3,2.7-3.3
	c1.7,0.1,2.9,1.6,2.8,3.3C140.7,182.8,139.4,184.3,137.8,184.4z"/>
<path class="st0" d="M152.2,184.4c-1.6,0.2-3-1-3.2-2.5c0-0.2,0-0.5,0-0.7c-0.2-1.6,0.9-3.1,2.5-3.3c1.6-0.2,3.1,0.9,3.3,2.5
	c0,0.3,0,0.6,0,0.8C155,182.8,153.8,184.2,152.2,184.4z"/>
<path class="st0" d="M201.8,147.8c-2.5,2.6-6.6,2.8-9.2,0.3c-0.5-0.5-0.9-1-1.2-1.6c-1.9-3.1-1.8-7,0.2-10c1.8-3,5.8-4,8.8-2.1
	c1,0.6,1.8,1.5,2.4,2.5c0.8,1.4,1.3,3.1,1.2,4.8C204.1,143.9,203.4,146.2,201.8,147.8z"/>
<path class="st0" d="M270.6,111.2c-2.2-12-6-23.6-11.3-34.5c-3.2-6.6-6.9-13-11.2-19c-6.5-9.3-14.2-17.8-22.8-25.2
	c-7-6-14.6-11.3-22.7-15.8c-9.9-5.6-20.6-9.9-31.6-12.7c-7.7-2-15.5-3.7-23.6-3.8c-1.5,0.1-3.1,0-4.6-0.2h-13
	c-0.2,0.2-0.5,0.1-0.8,0.2c-4.8,0-9.6,0.3-14.3,1C96,4.1,78,11,62,21.3c-6.6,4.2-12.7,9-18.5,14.3c-4.5,4.1-8.7,8.5-12.5,13.2
	C25,56,19.8,63.8,15.3,72C10.4,81.2,6.6,90.9,4,101c-2.2,7.8-3.4,15.7-3.8,23.8c0.1,1.7,0,3.3-0.2,5v13c0.2,0.3,0.1,0.7,0.1,1
	c-0.1,3.3,0.1,6.5,0.5,9.8c0.9,7.1,2.4,14.1,4.4,21c3.7,12.7,9.2,24.8,16.4,35.9c6.8,10.5,15.1,20.1,24.6,28.3
	c7.9,6.9,16.6,12.9,25.9,17.8c11.3,6.1,23.4,10.5,36,13.1c4.4,1,8.9,1.7,13.4,2c1.9,0.1,3.9,0.1,5.9,0.3h18c0.2-0.1,0.4-0.1,0.6-0.1
	c5.8,0,11.6-0.7,17.3-1.9c29.7-6,56.6-21.7,76.4-44.7c15.2-17.5,25.7-38.6,30.4-61.3c0.5-2.1,0.8-4.3,1.2-6.5
	c0.3-1.6-0.3-2.1-1.8-1.7c-1.9,0.4-3.9,0.6-5.8,0.5c-3.5-0.1-7-1.2-10-3c-0.1,0-0.3-0.1-0.4-0.2c-0.5-0.4-0.5-1.2-0.1-1.6
	c0.3-0.6,0.5-1.2,0.8-1.9c0.8-1.8,0.9-1.8,2.6-0.8c2.9,1.7,6.4,2.5,9.8,2.2c1.4,0,2.6-0.9,3-2.2c0.2-1.3-0.5-2.6-1.8-3.1
	c-1-0.5-2-0.9-3-1.2c-2.1-0.5-4.2-1.3-6.2-2.2c-3.5-1.5-5.3-5.4-4.2-9.1c0.9-3.3,3.4-5.1,6.6-6c3.1-0.8,6.5-0.8,9.6,0.1
	c1.8,0.4,1.9,0.4,1.9-1.5C271.9,121.1,271.4,116.1,270.6,111.2z M81.1,187.1c-2.7,0.5-5.5-0.3-7.6-2.1c-0.5-0.4-0.5-0.7-0.1-1.1
	s0.9-1.4,1.5-1.7s1.2,0.7,1.9,1c1,0.7,2.3,1,3.5,0.8c0.7,0,1.2-0.5,1.3-1.2c0.1-0.7-0.3-1.3-1-1.5c-1.5-0.5-3-0.9-4.4-1.5
	c-1.5-0.5-2.6-1.9-2.6-3.5c-0.1-3.1,1.9-5,5.5-5c1.8,0,3.5,0.5,5,1.4c0.6,0.4,0.9,0.7,0.3,1.3s-0.7,1.3-1.2,1.6s-1.1-0.5-1.7-0.8
	c-0.9-0.4-1.9-0.6-2.9-0.5c-0.7,0-1.2,0.5-1.3,1.2c-0.1,0.7,0.3,1.3,0.9,1.5c1.1,0.4,2.2,0.6,3.3,1c2.4,0.8,3.6,2.1,3.7,4
	C85.5,184.6,83.6,186.8,81.1,187.1z M92.9,187.1c-2.1,0.8-4.4-0.3-5.1-2.3c-0.1-0.3-0.2-0.7-0.2-1c0-0.2-0.1-0.5-0.1-0.7
	c0-1.8,0-3.5,0-5.3l0,0c0-1.7,0-3.4,0-5.2c0-0.7,0.2-1,0.9-0.9h0.1c2.5-0.1,2.5-0.1,2.5,2.4c0,1,0.3,1.2,1.2,1.2
	c1.7-0.1,2.1,0.5,1.7,2.2c-0.1,0.6-0.6,0.4-0.9,0.4c-2,0.1-2,0.1-2,2c0,1,0,2,0,3c0,1.4,1,2,2.2,1.1c0.7-0.5,0.7-0.1,1,0.3
	C95,186,94.8,186.5,92.9,187.1z M102.1,178.4c-1.3,0.1-2.2,1.5-2.2,3.3c0,1.5,0,3,0,4.5c0,0.7-0.1,1-1,1c-2.4,0-2.4,0-2.4-2.4
	c0-2.8,0-5.7,0-8.5c0-0.9,0.2-1.2,1.1-1c0.4,0,0.7,0,1.1,0c0.9-0.2,1.5,0,1.1,1.4c0.8-0.8,1.9-1.3,3-1.6c0.5-0.1,0.8,0,0.7,0.6
	c0,0.3,0,0.7,0,1C103.6,177.7,103.3,178.3,102.1,178.4z M117.1,181.2c0,1.7,0,3.4,0,5.2c0,0.6-0.2,0.9-0.8,0.8s-1.2,0-1.8,0
	c-0.2,0-0.4,0-0.5,0c-0.6-1.3-1.3-0.2-1.9,0c-2.2,0.6-4.6-0.2-6-2c-1.4-1.8-1.7-4.3-0.8-6.5c0.7-2.1,2.6-3.5,4.8-3.6
	c0.2,0,0.4,0,0.6,0c1,0.1,2,0.4,2.9,0.9c0.6-1.3,1.7-0.5,2.6-0.7s1,0.2,0.9,0.9C117,177.8,117.1,179.5,117.1,181.2z M126.5,187
	c-0.6,0.2-1.3,0.3-1.9,0.3c-1.7,0-3.3-0.5-4.7-1.4c-0.5-0.3-0.8-0.6-0.3-1.2c0.2-0.2,0.4-0.5,0.5-0.8c0.3-0.6,0.6-0.7,1.2-0.3
	c0.9,0.6,2,1,3.1,1c0.6,0,1.2-0.1,1.4-0.7s-0.4-1-0.9-1.2c-1-0.4-2.1-0.8-3.1-1.2c-1.2-0.4-2-1.5-2-2.8c0-1.3,0.7-2.5,1.8-3.1
	c2.2-1,4.7-0.9,6.7,0.4c0.3,0.2,0.4,0.4,0.2,0.8c-0.2,0.4-0.5,0.8-0.6,1.2c-0.2,0.5-0.5,0.6-1,0.3c-0.8-0.5-1.8-0.8-2.7-0.7
	c-0.5,0-1,0.1-1.2,0.7s0.4,0.8,0.8,1c0.9,0.3,1.8,0.6,2.7,1c1.9,0.7,2.5,1.5,2.4,3.2C129.2,185.2,128.1,186.6,126.5,187z
	 M142.4,185.5c-2.1,2.2-4.3,2.4-7.4,0.4c0.3,1.4-0.5,1.3-1.3,1.3c-2,0-2,0-2-2c0-4.4,0-8.9,0-13.3c0-0.9,0.2-1.2,1.1-1.2
	c2.3,0,2.3,0,2.3,2.2v3.2c3.4-1.8,5.9-1.4,7.7,1C144.6,179.7,144.4,183.1,142.4,185.5z M138.4,156.9c-8.2,0.7-14.5-2.8-18.4-10
	c-4.7-8.7-2.9-19.5,4.3-26.2c9-8.1,25.5-5.5,29.8,7.8c0.1,0.3,0.2,0.6,0.2,0.9c-2.5,0-5.1,0-7.7,0c-0.7,0-0.8-0.5-1.1-1
	c-2.8-4.9-9-6.7-14-3.9c-0.7,0.4-1.3,0.8-1.9,1.4c-2.6,2.3-4.2,5.5-4.4,9c-0.5,4,0.6,8.1,3.2,11.2c3.5,4.5,9.9,5.3,14.3,1.8
	c1.1-0.8,2-1.9,2.7-3.1c0.3-0.7,1.1-1.2,1.9-1.1c2,0.1,4,0.1,6,0c1,0,1,0.3,0.7,1.1C151.3,151.9,146.1,156.2,138.4,156.9z
	 M151.7,187.2c-3.3-0.1-5.9-2.8-6-6c0.1-3.5,3.1-6.2,6.5-6c3.3,0.1,5.9,2.8,6,6C158.1,184.6,155.1,187.3,151.7,187.2z M171.7,186.2
	c0,0.8-0.2,1.1-1,1c-0.4,0-0.7,0-1.1,0c-0.9,0-1.8,0.1-1.1-1.7c-1.7,1.9-3.3,2.1-5.1,1.5c-1.5-0.5-2.6-1.8-2.8-3.4
	c-0.3-2.5-0.1-5.1-0.1-7.7c0-0.3,0-0.6,0.4-0.6c0.9-0.1,1.8-0.1,2.8,0c0.5,0,0.3,0.6,0.3,0.9c0,1.9,0,3.8,0,5.6s0.7,2.6,2,2.6
	c1.3,0,2.4-1.1,2.4-2.4c0-0.1,0-0.1,0-0.2c0-1.8,0-3.7,0-5.5c0-0.7,0.1-1,1-1c2.4,0,2.4,0,2.4,2.3
	C171.7,180.4,171.7,183.3,171.7,186.2z M169.4,139.2c0,2.7,0,5.4,0,8.1c0,2.7,0,5.4,0,8.2c0,0.7-0.2,1-0.9,1c-2,0-4.1,0-6.1,0
	c-0.5,0-0.8,0-0.8-0.7c0.1-6.1-0.3-12.2,0.2-18.3c0.4-6,5.3-10.7,11.2-10.9c1.2-0.1,2.3-0.1,3.5,0c0.6,0,0.8,0.2,0.8,0.8
	c0,2,0,3.9,0,5.9c0,0.6-0.2,0.8-0.8,0.6c-0.8-0.2-1.7-0.2-2.5,0C171.2,134.1,169.2,136.5,169.4,139.2z M180.3,178.3
	c-1.3,0-2.1,1.3-2.2,3s-0.1,3.3,0,4.9c0,0.7-0.2,1-0.9,1c-2.5,0-2.5,0-2.5-2.4c0-2.9,0-5.8,0-8.6c0-0.7,0.2-1,0.9-0.9
	c0.4,0,0.8,0,1.2,0c0.9-0.2,1.5,0,1.2,1.4c0.8-0.7,1.8-1.3,2.9-1.5c0.5-0.1,0.8,0,0.7,0.6c0,0.3,0,0.6,0,0.8
	C181.7,177.5,181.8,178.3,180.3,178.3z M194.8,186.8c-0.2,2.4-2.1,4.4-4.5,4.8c-2.6,0.6-5.3-0.6-6.6-3c-0.4-0.6-0.5-1.1,0.4-1.3
	c0.2-0.1,0.5-0.2,0.7-0.3c0.9-0.6,1.5-0.5,2.1,0.6c0.6,1,1.8,1.5,2.9,1.1c1.2-0.3,1.9-1.5,1.9-3.2c-3.2,1.8-6.4,1.1-7.9-1.8
	s-0.4-6.9,2.5-8.2c1.4-0.7,3-0.7,4.4,0c0.4,0.2,0.8,0.7,1.1-0.2c1-0.2,2-0.2,3-0.1c0.1,0.2,0.2,0.3,0.2,0.5
	C194.9,179.5,195.2,183.2,194.8,186.8z M197.1,157c-8.3,0-14.7-6.7-14.7-15.3s6.6-15.4,14.8-15.3c8.2,0,14.7,6.8,14.7,15.4
	S205.4,157,197.1,157z M245.5,146.7c-0.9,5.6-5.6,9.8-11.2,10.2c-4.4,0.4-8.5-0.5-11.7-4c-2.4-2.7-3.1-6-3.1-9.4
	c0-5.2,0-10.3,0-15.5c0-0.8,0.2-1,1-1c1.9,0,3.8,0.1,5.8,0c0.9,0,1,0.3,1,1.1c0,5.1,0,10.2,0,15.4c0,0.4,0,0.8,0,1.2
	c0.4,3.3,2.3,5,5.7,4.8c2.8-0.1,5.1-2.4,5-5.2c0,0,0-0.1,0-0.1c0-5.3,0-10.6,0-15.8c0-1,0.3-1.3,1.3-1.2c1.8,0.1,3.7,0.1,5.5,0
	c0.8,0,1,0.2,1,1c0,2.9,0,5.8,0,9.3C245.6,140,246.1,143.4,245.5,146.7z"/>
</svg>
